HIERARCHY
ROOT Hips
{
	OFFSET 0.00000 0.00000 0.00000
	CHANNELS 6 Xposition Yposition Zposition Yrotation Zrotation Xrotation 
	JOINT Lumbar
	{
		OFFSET 0 0 0
		CHANNELS 3 Zrotation Xrotation Yrotation
		JOINT Neck
		{
			OFFSET 0.00 0.2701 0.00
			CHANNELS 3 Zrotation Xrotation Yrotation
			End Site
			{
				OFFSET 0.00 0.1379 0.00
			}
		}
		JOINT RightShoulder
		{
			OFFSET 0.0119 0.2289 0.1181
			CHANNELS 3 Zrotation Xrotation Yrotation
			JOINT RightElbow
			{
				OFFSET 0.00 -0.1475 0.00
				CHANNELS 2 Zrotation Yrotation
				JOINT RightWrist
				{
					OFFSET 0.00 -0.1605 0.00
					CHANNELS 2 Zrotation Xrotation
					End Site
					{
						OFFSET 0.0040 -0.1068 0.0006
					}
				}
			}
		}
		JOINT LeftShoulder
		{
			OFFSET 0.0119 0.2289 -0.1181
			CHANNELS 3 Zrotation Xrotation Yrotation
			JOINT LeftElbow
			{
				OFFSET 0.00 -0.1475 0.00
				CHANNELS 2 Zrotation Yrotation
				JOINT LeftWrist
				{
					OFFSET 0.00 -0.1605 0.00
					CHANNELS 2 Zrotation Xrotation
					End Site
					{
						OFFSET 0.0040 -0.1068 -0.0006
					}
				}
			}
		}
	}
	JOINT RightHip
	{
		OFFSET 0.0316 -0.0424 0.0458
		CHANNELS 3 Zrotation Xrotation Yrotation
		JOINT RightKnee
		{
			OFFSET 0.00 -0.2438 0.00
			CHANNELS 1 Zrotation
			JOINT RightAnkle
			{
				OFFSET 0.00 -0.2449 0.00
				CHANNELS 3 Zrotation Xrotation Yrotation
				End Site
				{
					OFFSET 0.1237 -0.0542 0.0051
				}
			}
		}
	}
	JOINT LeftHip
	{
		OFFSET 0.0316 -0.0424 -0.0458
		CHANNELS 3 Zrotation Xrotation Yrotation
		JOINT LeftKnee
		{
			OFFSET 0.00 -0.2438 0.00
			CHANNELS 1 Zrotation
			JOINT LeftAnkle
			{
				OFFSET 0.00 -0.2449 0.00
				CHANNELS 3 Zrotation Xrotation Yrotation
				End Site
				{
					OFFSET 0.1237 -0.0542 -0.0051
				}
			}
		}
	}
}
MOTION
Frames: 33
Frame Time: 0.02
0.41794 -0.24714 -0.03136 -175.81387 10.67625 -2.10962 23.6715 2.91695 -4.97133 -12.24177 -5.15661 -0.83042 43.83962 1.73271 64.17116 102.40376 91.23358 71.35543 -2.46977 11.75005 -5.0669 -64.12417 95.94658 -122.60672 53.06982 -0.08026 72.26533 -7.12702 -8.10018 -73.42345 -14.66479 -4.35564 -3.37344 72.75749 11.21932 4.11149 -71.30028 -16.07195 3.94775 3.21096
0.41815 -0.24717 -0.03123 -175.90022 10.96574 -1.99124 23.42099 2.89667 -5.40726 -12.08628 -5.31894 -0.83043 39.91302 3.42833 64.17116 99.54806 83.9442 70.85722 -3.12234 14.22444 -3.39289 -64.13259 100.08725 -104.78927 58.69251 3.95035 71.96506 -7.24546 -8.19555 -73.36295 -14.72525 -4.34483 -3.3705 72.46252 11.10416 3.99814 -71.24518 -16.08194 3.96184 3.22094
0.41837 -0.24718 -0.03108 -176.00651 11.30955 -1.83939 23.09389 2.87473 -5.95521 -11.8892 -5.5117 -0.83043 34.98979 5.55708 64.17116 95.96448 74.83214 70.21715 -3.93596 17.36484 -1.26857 -64.14278 105.30066 -82.43436 65.80753 8.99447 71.60749 -7.37079 -8.27939 -73.29002 -14.80351 -4.33192 -3.36742 72.10523 10.97114 3.87044 -71.17484 -16.09839 3.97898 3.2332
0.41858 -0.2472 -0.03095 -176.09776 11.61452 -1.71227 22.81626 2.855 -6.42151 -11.71034 -5.68204 -0.83043 30.79033 7.37306 64.17116 92.90991 67.05236 69.66279 -4.63486 20.08944 0.56838 -64.15189 109.75171 -63.30226 71.91486 13.30409 71.29259 -7.4945 -8.37343 -73.22716 -14.87105 -4.31957 -3.36392 71.79169 10.85634 3.75913 -71.11397 -16.11138 3.99383 3.24374
0.41879 -0.2472 -0.0308 -176.21361 11.97829 -1.54575 22.47766 2.82922 -7.01502 -11.53433 -5.88699 -0.83043 25.46815 9.67027 64.17116 89.03322 57.1814 69.01659 -5.50761 23.31291 2.76216 -64.16226 115.34841 -39.31938 79.41774 18.7508 70.90862 -7.61442 -8.44959 -73.14615 -14.94952 -4.30877 -3.36235 71.41417 10.69921 3.60684 -71.04267 -16.12652 4.01249 3.25712
0.419 -0.24725 -0.03068 -176.28366 12.23406 -1.45234 22.24608 2.81569 -7.37364 -11.34207 -6.02929 -0.83043 22.21978 11.0799 64.17116 86.67554 51.18177 68.52855 -6.06002 25.65366 4.32175 -64.17039 118.83952 -24.25972 84.38852 22.09752 70.65306 -7.74184 -8.55754 -73.09947 -15.00972 -4.29435 -3.35682 71.15336 10.62473 3.53487 -70.98924 -16.13879 4.02399 3.26519
0.41921 -0.24745 -0.03066 -176.21654 12.16305 -1.57794 22.34642 2.83572 -7.02542 -11.12038 -5.97225 -0.83043 25.19223 9.82329 64.17116 88.87599 56.78714 68.51566 -5.65165 25.31265 3.95684 -64.17183 116.0006 -35.99797 81.72579 19.14236 70.78374 -7.90143 -8.77545 -73.15474 -15.01261 -4.26978 -3.33953 71.24642 10.79712 3.70527 -70.99034 -16.14091 4.01414 3.25731
0.41943 -0.24771 -0.03068 -176.10374 11.98407 -1.77665 22.55403 2.86835 -6.44254 -10.88281 -5.85509 -0.83043 30.24088 7.67819 64.17116 92.59675 66.26714 68.66668 -4.92173 24.07012 2.94748 -64.17096 111.05046 -56.68943 76.50844 14.08418 71.04259 -8.06584 -9.02219 -73.2442 -14.99695 -4.24179 -3.31841 71.45628 11.0509 3.95409 -71.00962 -16.14005 3.99711 3.24413
0.41964 -0.24793 -0.03068 -176.01564 11.86469 -1.93599 22.70087 2.89553 -5.98747 -10.6492 -5.77722 -0.83044 34.17351 6.01186 64.17116 95.49911 73.66369 68.74037 -4.36323 23.29117 2.27331 -64.1712 107.2334 -72.59462 72.64049 10.15764 71.23099 -8.21903 -9.24251 -73.31531 -14.99141 -4.21583 -3.2996 71.60174 11.25804 4.15577 -71.01961 -16.14098 3.98389 3.23385
0.41987 -0.24817 -0.03068 -175.91156 11.70352 -2.11996 22.89522 2.92108 -5.4475 -10.42808 -5.64795 -0.83044 38.79453 4.04589 64.17116 98.91097 82.349 68.82034 -3.70461 22.31375 1.43867 -64.17123 102.72607 -91.34724 68.03872 5.53081 71.46805 -8.40999 -9.51762 -73.39792 -14.97936 -4.18778 -3.27839 71.792 11.50474 4.40491 -71.03348 -16.14029 3.96846 3.22158
0.42007 -0.24838 -0.03068 -175.82969 11.60206 -2.2706 23.01779 2.95355 -5.0265 -10.17744 -5.61349 -0.83044 42.49399 2.48511 64.17116 101.63626 89.30584 68.92888 -3.17482 21.52026 0.77652 -64.17112 99.13465 -106.38246 64.32773 1.84127 71.63599 -8.52413 -9.68692 -73.46481 -14.97622 -4.16328 -3.26124 71.91851 11.68927 4.57472 -71.04372 -16.14219 3.95589 3.21215
0.42022 -0.24848 -0.03069 -175.82006 11.7005 -2.30994 22.90995 2.99793 -4.99676 -9.85172 -5.83484 -0.83044 43.09172 2.27822 64.17116 102.06167 90.44742 69.0696 -3.08941 21.50973 0.77036 -64.17118 98.63967 -108.7438 63.79434 1.32571 71.57284 -8.41774 -9.54552 -73.48047 -15.0022 -4.14968 -3.25656 71.83182 11.6768 4.50029 -71.04001 -16.15172 3.95296 3.21189
0.42034 -0.24854 -0.03071 -175.83432 11.86103 -2.31366 22.72753 3.04965 -5.09328 -9.49658 -6.15742 -0.83044 42.70423 2.50436 64.17116 101.75319 89.74218 69.23527 -3.14221 21.70363 0.9543 -64.17116 99.12491 -107.11735 64.22272 1.80889 71.43749 -8.23513 -9.29877 -73.47911 -15.03768 -4.13974 -3.25602 71.67871 11.60004 4.34445 -71.03201 -16.16395 3.95313 3.21465
0.42048 -0.24862 -0.03072 -175.83775 11.98708 -2.33475 22.58367 3.10071 -5.12789 -9.15344 -6.44709 -0.83045 42.80533 2.5184 64.17116 101.80557 89.95407 69.39475 -3.12424 21.76245 1.03356 -64.17115 99.12206 -107.48465 64.13964 1.78128 71.34151 -8.0922 -9.10785 -73.48523 -15.06874 -4.12798 -3.25335 71.56212 11.55638 4.23003 -71.02563 -16.1751 3.95186 3.21597
0.42062 -0.24869 -0.03073 -175.8395 12.1353 -2.35329 22.42429 3.14087 -5.17346 -8.81546 -6.67936 -0.83045 42.80698 2.56609 64.17116 101.79562 89.97303 69.53861 -3.12823 21.96084 1.16501 -64.17115 99.22417 -107.40108 64.27388 1.91579 71.22294 -7.9284 -8.88453 -73.49357 -15.09965 -4.11675 -3.2516 71.42338 11.49924 4.10002 -71.02112 -16.18561 3.95048 3.21739
0.42075 -0.24877 -0.03073 -175.851 12.25418 -2.36783 22.27755 3.20538 -5.22929 -8.46 -7.05604 -0.83045 42.75338 2.65835 64.17116 101.72085 89.90293 69.7182 -3.12415 21.93811 1.24477 -64.17114 99.37034 -107.18619 64.22765 1.98386 71.13177 -7.78962 -8.7031 -73.49287 -15.13329 -4.10534 -3.24899 71.31278 11.45375 3.98169 -71.01167 -16.19805 3.95016 3.21939
0.42089 -0.24888 -0.03072 -175.88407 12.27114 -2.37891 22.1887 3.33455 -5.2831 -8.06361 -7.80656 -0.83045 42.79208 2.7688 64.17116 101.64573 90.04065 69.99565 -3.0594 21.17156 1.1047 -64.17115 99.38433 -107.61467 63.3605 1.57276 71.14094 -7.74105 -8.66481 -73.47057 -15.17282 -4.09261 -3.2429 71.30192 11.45653 3.91876 -70.98762 -16.21583 3.952 3.22234
0.42104 -0.249 -0.0307 -175.92631 12.25788 -2.38696 22.1139 3.48799 -5.34393 -7.65096 -8.69895 -0.83046 42.79804 2.91332 64.17115 101.52333 90.13319 70.30675 -2.98417 20.19133 0.9131 -64.17115 99.42107 -108.00168 62.30348 1.07891 71.1784 -7.71985 -8.67192 -73.43974 -15.21471 -4.07959 -3.23583 71.32015 11.47268 3.86932 -70.95899 -16.23536 3.95483 3.22579
0.42118 -0.24911 -0.03068 -175.96422 12.26293 -2.39684 22.0288 3.63088 -5.40242 -7.24542 -9.52715 -0.83046 42.80624 3.04607 64.17114 101.41554 90.22536 70.59772 -2.9184 19.37319 0.77069 -64.17116 99.46827 -108.33886 61.40847 0.66902 71.19748 -7.68441 -8.65695 -73.41317 -15.2552 -4.06671 -3.22931 71.32047 11.48216 3.81126 -70.93368 -16.25364 3.95724 3.22899
0.42133 -0.24922 -0.03066 -176.00345 12.2514 -2.40388 21.95701 3.77232 -5.4617 -6.83894 -10.35886 -0.83046 42.8351 3.17797 64.17114 101.31201 90.34231 70.90866 -2.83757 18.30408 0.53325 -64.17117 99.46418 -108.81897 60.24227 0.10301 71.2368 -7.65372 -8.64423 -73.38439 -15.29748 -4.05392 -3.22253 71.33773 11.49233 3.76121 -70.90308 -16.27389 3.95963 3.23241
0.42145 -0.24935 -0.03064 -176.04202 12.26564 -2.41622 21.86265 3.92207 -5.51923 -6.43228 -11.21415 -0.83047 42.82528 3.31387 64.17113 101.19792 90.42236 71.18747 -2.78364 17.68331 0.46963 -64.17115 99.55525 -109.0594 59.56284 -0.17785 71.24242 -7.62089 -8.6392 -73.35843 -15.33635 -4.04084 -3.21599 71.32824 11.50459 3.69838 -70.88236 -16.29049 3.96224 3.23543
0.4215 -0.24952 -0.0306 -176.07452 12.36518 -2.4471 21.69531 4.09183 -5.57129 -6.01811 -12.11203 -0.83047 42.72213 3.45466 64.17113 101.06599 90.39776 71.35267 -2.8084 18.53919 0.98226 -64.17121 99.94197 -108.50227 60.45637 0.41439 71.14114 -7.5735 -8.64293 -73.34234 -15.36637 -4.02685 -3.21039 71.23121 11.52404 3.60053 -70.89111 -16.29585 3.96549 3.23729
0.42153 -0.2497 -0.03056 -176.10621 12.49022 -2.48301 21.50641 4.26845 -5.62054 -5.6066 -13.02578 -0.83047 42.58488 3.59584 64.17113 100.92854 90.34843 71.48684 -2.85959 19.8214 1.65667 -64.17119 100.41245 -107.74784 61.8111 1.28046 71.00653 -7.52371 -8.65355 -73.32947 -15.39264 -4.0126 -3.20505 71.1077 11.54473 3.48938 -70.9098 -16.29758 3.96889 3.23871
0.42156 -0.24987 -0.03053 -176.13954 12.59873 -2.51469 21.33261 4.43998 -5.66971 -5.20116 -13.92405 -0.83048 42.46441 3.73325 64.17113 100.79744 90.3292 71.64663 -2.89677 20.78084 2.19927 -64.17115 100.81376 -107.20344 62.82622 1.97217 70.89214 -7.47671 -8.66259 -73.31522 -15.41982 -3.99855 -3.19953 71.00106 11.56192 3.382 -70.92326 -16.30148 3.97202 3.24026
0.4216 -0.25005 -0.03048 -176.16814 12.72673 -2.55437 21.13719 4.62091 -5.72484 -4.76414 -14.86309 -0.83048 42.33679 3.8871 64.17113 100.64843 90.2302 71.76106 -2.94204 22.26334 2.97981 -64.17147 101.34499 -106.16278 64.37031 2.86821 70.75754 -7.42357 -8.66695 -73.30032 -15.45037 -3.98412 -3.1942 70.87537 11.5913 3.28343 -70.93956 -16.30337 3.97601 3.24211
0.42163 -0.25021 -0.03046 -176.20589 12.82103 -2.57873 20.98108 4.7833 -5.7669 -4.39408 -15.71808 -0.83048 42.21651 4.00656 64.17113 100.53561 90.28906 71.95956 -2.97693 22.77835 3.31194 -64.17084 101.62861 -106.0901 64.94193 3.40981 70.65643 -7.38215 -8.68165 -73.28765 -15.47308 -3.97045 -3.18858 70.78223 11.59622 3.16469 -70.9524 -16.30841 3.97828 3.24325
0.42161 -0.25033 -0.03051 -176.2725 12.8121 -2.55884 20.94268 4.89515 -5.77251 -4.20589 -16.34503 -0.83048 42.12633 4.02792 64.17116 100.52982 90.82079 72.42004 -2.9762 20.36254 2.29599 -64.1693 101.17611 -108.91609 62.56417 2.85997 70.65881 -7.37523 -8.7273 -73.28041 -15.47425 -3.95855 -3.18175 70.78945 11.52651 2.98062 -70.95288 -16.32439 3.97526 3.24236
0.42157 -0.25043 -0.03059 -176.34765 12.76922 -2.52351 20.94381 4.98757 -5.76523 -4.08564 -16.8846 -0.83049 42.04473 4.01498 64.17118 100.55994 91.50699 72.96197 -2.9643 16.98769 0.83625 -64.16658 100.47723 -112.69129 59.22034 1.95264 70.69539 -7.37994 -8.78228 -73.27536 -15.4678 -3.94749 -3.17466 70.82949 11.43329 2.77902 -70.94968 -16.34338 3.9706 3.24081
0.42154 -0.25053 -0.03065 -176.41669 12.74463 -2.49572 20.92417 5.08723 -5.76448 -3.93583 -17.45833 -0.83049 41.95846 4.01952 64.1712 100.57009 92.10253 73.45174 -2.95782 14.1554 -0.37358 -64.16321 99.91192 -115.91517 56.41955 1.23952 70.71426 -7.37796 -8.8299 -73.26929 -15.46536 -3.93631 -3.16791 70.85172 11.35531 2.59386 -70.9484 -16.36018 3.96699 3.23968
0.42151 -0.25064 -0.03071 -176.49526 12.70893 -2.46587 20.91552 5.19379 -5.76078 -3.78014 -18.05637 -0.83049 41.8741 4.01618 64.17123 100.59517 92.78318 74.00403 -2.95059 10.88999 -1.78012 -64.16451 99.25856 -119.63536 53.198 0.40266 70.74105 -7.38114 -8.89035 -73.26334 -15.46048 -3.92402 -3.16028 70.88518 11.25842 2.37262 -70.94626 -16.38051 3.96207 3.23801
0.42148 -0.25074 -0.03079 -176.55583 12.68786 -2.43663 20.89379 5.28137 -5.76023 -3.65331 -18.58253 -0.83049 41.78838 4.02103 64.17125 100.59805 93.32401 74.4463 -2.94219 8.29007 -2.88603 -64.15621 98.72872 -122.55373 50.61452 -0.26588 70.75999 -7.37725 -8.92698 -73.25772 -15.45895 -3.91422 -3.15438 70.90348 11.195 2.22234 -70.94508 -16.39399 3.95952 3.23732
0.42149 -0.25084 -0.03093 -176.56617 12.71656 -2.41221 20.82514 5.32014 -5.77105 -3.58521 -18.93328 -0.8305 41.69585 4.05741 64.17123 100.52854 93.43737 74.56081 -2.93094 7.78999 -3.03999 -64.11809 98.60221 -122.99283 50.05299 -0.375 70.74825 -7.34314 -8.88833 -73.25162 -15.4683 -3.91142 -3.1535 70.87112 11.23246 2.27388 -70.94603 -16.39014 3.96374 3.23945
0.42152 -0.25094 -0.03109 -176.55782 12.76082 -2.38902 20.74232 5.34062 -5.78556 -3.54464 -19.21407 -0.8305 41.60194 4.1031 64.17121 100.43592 93.4055 74.5626 -2.91914 7.98558 -2.87933 -64.07097 98.60775 -122.59935 50.16044 -0.30501 70.72773 -7.30282 -8.82647 -73.24588 -15.48134 -3.91105 -3.15433 70.82265 11.30387 2.39708 -70.94827 -16.37893 3.97043 3.24259
